# xmcd
#
# Track frame offsets:
# 150
# 20078
# 34223
#
# Disc length: 689 seconds
#
#
# Revision: 0
# Processed by: cddbd v1.5.2PL0 Copyright (c) Steve Scherf et al.
# Submitted via: FreeRIP 2.951 
#
DISCID=2002af03
DTITLE=little green - demo
DYEAR=2006
DGENRE=Country
TTITLE0=river keep on flowing
TTITLE1=innocent again
TTITLE2=reasons to be
EXTD=
EXTT0=
EXTT1=
EXTT2=
PLAYORDER=
